<svg width="35" height="37" viewBox="0 0 35 37" fill="none" xmlns="http://www.w3.org/2000/svg">
<g clip-path="url(#clip0_377_38)">
<path fill-rule="evenodd" clip-rule="evenodd" d="M1.78876 33.8022C0.255521 33.6848 -0.114261 32.5797 0.0270376 31.3061C0.865811 23.7904 9.2806 25.9674 12.6628 22.9172C14.3493 27.8855 21.3962 28.0692 22.9776 22.9172C23.3413 23.2454 23.8464 23.5225 24.4417 23.7663C23.8975 24.0976 23.3834 24.498 22.9114 24.9708C20.5274 27.3555 19.9411 30.8634 21.1497 33.8022H1.78876ZM12.6177 17.9339C13.258 18.9486 13.9284 19.9905 14.7582 20.7553C15.5579 21.487 16.5319 21.9868 17.8126 21.9898C19.2076 21.9928 20.2207 21.4779 21.0475 20.7011C21.9073 19.8971 22.5837 18.7921 23.2541 17.69L25.0519 14.7271C25.3857 13.9593 25.5089 13.4474 25.4307 13.1463C25.3826 12.9687 25.1872 12.8813 24.8535 12.8663C24.7844 12.8633 24.7092 12.8633 24.6371 12.8633C24.5589 12.8663 24.4747 12.8723 24.3845 12.8783C24.3334 12.8813 24.2913 12.8783 24.2462 12.8693C24.0899 12.8783 23.9216 12.8663 23.7562 12.8422L24.3695 10.1142C19.8028 10.8338 16.3876 7.44034 11.5654 9.43668L11.9142 12.6495C11.7248 12.6615 11.5384 12.6525 11.367 12.6284C8.59816 12.7187 12.0735 17.0637 12.6177 17.9339ZM25.4758 12.0473C25.9178 12.1828 26.2004 12.4628 26.3176 12.9175C26.4469 13.4203 26.3056 14.1309 25.8787 15.1005C25.8697 15.1186 25.8637 15.1366 25.8516 15.1517L24.0358 18.1477C23.3353 19.3039 22.6258 20.4632 21.6758 21.3485C20.6957 22.2698 19.4812 22.8841 17.8247 22.8781C16.2794 22.8751 15.1129 22.2849 14.1569 21.4057C13.0025 20.3458 7.68723 13.6793 10.0623 12.0744C10.1795 11.9991 10.3088 11.9298 10.4471 11.8787C10.3418 10.4996 10.3058 8.76521 10.3719 7.31086C10.408 6.9676 10.4741 6.62434 10.5673 6.27807C10.9732 4.8177 11.9983 3.64338 13.261 2.83642C13.9585 2.39078 14.7251 2.05655 15.5188 1.83373C16.0239 1.6892 15.0889 0.066235 15.609 0.0180579C18.1373 -0.243905 22.238 2.07161 24.0057 3.98966C24.8866 4.94718 25.4488 6.22086 25.569 7.90404L25.4758 12.0473Z" fill="#0D6A84"/>
<path fill-rule="evenodd" clip-rule="evenodd" d="M28.6566 24.2872C32.162 24.2872 35.003 27.1327 35.003 30.6436C35.003 34.1545 32.162 37 28.6566 37C25.1512 37 22.3102 34.1545 22.3102 30.6436C22.3102 27.1327 25.1512 24.2872 28.6566 24.2872ZM26.3868 30.1618C26.8618 30.4358 27.1715 30.6647 27.5382 31.0712C28.4912 29.5325 29.5284 28.6804 30.8753 27.4669L31.0076 27.4157H32.4837C30.5055 29.6138 28.9723 31.4295 27.6014 34.0792C26.8859 32.5496 26.2485 31.4927 24.8265 30.5141L26.3868 30.1618Z" fill="#3AAF3C"/>
</g>
<defs>
<clipPath id="clip0_377_38">
<rect width="35" height="37" fill="white"/>
</clipPath>
</defs>
</svg>
