<svg width="20" height="20" viewBox="0 0 20 20" fill="none" xmlns="http://www.w3.org/2000/svg">
<path d="M4.16669 3.29053C3.70666 3.29053 3.33331 3.66387 3.33331 4.1239C3.33331 4.58394 3.70666 4.95728 4.16669 4.95728C4.62672 4.95728 5.00007 4.58394 5.00007 4.1239C5.00007 3.66387 4.62672 3.29053 4.16669 3.29053Z" fill="#C0A65C"/>
<path d="M19.268 9.34665L14.8318 4.91135C14.4526 4.53214 13.9601 4.31131 13.4451 4.2363C13.0908 2.78538 11.8058 1.49029 9.83981 0.67606C7.88054 -0.135636 5.34368 -0.363152 3.85026 0.822749C1.70262 0.98776 0 2.76788 0 4.95721C0 5.88977 0.318342 6.74151 0.837557 7.43656C0.836737 7.44406 0.833377 7.44988 0.833377 7.45738V9.95755C0.833377 10.3168 1.06257 10.6351 1.4026 10.7484L2.28683 11.0426L1.20426 11.7644C0.972566 11.9194 0.833416 12.1794 0.833416 12.4577C0.833416 12.7369 0.972605 12.9969 1.20426 13.1511L2.66436 14.1245L1.20426 15.0979C0.972566 15.2529 0.833416 15.5129 0.833416 15.7912V17.458C0.833416 17.7372 0.972605 17.9972 1.20426 18.1514L3.70443 19.8182C3.84444 19.9115 4.00527 19.9582 4.16696 19.9582C4.32779 19.9582 4.48866 19.9115 4.62867 19.8182L7.12884 18.1514C7.36136 17.9972 7.50055 17.7372 7.50055 17.458V7.45734C7.50055 7.44984 7.49637 7.44402 7.49637 7.43652C8.01558 6.74147 8.33393 5.88973 8.33393 4.95717C8.33393 3.61208 7.6822 2.42618 6.68963 1.66363C7.46137 1.67945 8.34393 1.86032 9.2023 2.21616C10.3199 2.6787 11.4983 3.50543 11.8058 4.533C11.6208 4.63719 11.4433 4.7572 11.2899 4.91135L9.12062 7.08067C8.64809 7.55321 8.38639 8.18243 8.38639 8.85161C8.38639 9.51998 8.64809 10.1492 9.12062 10.6226L13.5559 15.0579C14.0293 15.5312 14.6585 15.7912 15.3269 15.7912C15.9961 15.7912 16.6253 15.5312 17.0978 15.0579L19.268 12.8885L19.2688 12.8877C20.2439 11.9118 20.2439 10.3234 19.268 9.34665ZM4.16696 7.45738C2.78769 7.45738 1.66679 6.33562 1.66679 4.95721C1.66679 3.5788 2.78769 2.45704 4.16696 2.45704C5.54538 2.45704 6.66713 3.5788 6.66713 4.95721C6.66713 6.33562 5.54538 7.45738 4.16696 7.45738ZM13.0609 8.85079C12.7475 9.16414 12.2408 9.16414 11.9275 8.85079C11.615 8.53827 11.615 8.03074 11.9275 7.71822C12.2408 7.40488 12.7475 7.40488 13.0609 7.71822C13.3734 8.03074 13.3734 8.53827 13.0609 8.85079ZM16.4828 12.2735C16.3203 12.436 16.107 12.5177 15.8936 12.5177C15.6802 12.5177 15.4669 12.436 15.3044 12.2735L13.6051 10.5734C13.2792 10.2484 13.2792 9.72085 13.6051 9.39501C13.9301 9.06999 14.4576 9.06999 14.7835 9.39501L16.4828 11.0951C16.8086 11.421 16.8086 11.9485 16.4828 12.2735Z" fill="#C0A65C"/>
</svg>
