<svg width="28" height="29" viewBox="0 0 28 29" fill="none" xmlns="http://www.w3.org/2000/svg">
<g clip-path="url(#clip0_377_5)">
<path fill-rule="evenodd" clip-rule="evenodd" d="M18.0139 12.3986H21.4851C21.7282 12.3986 21.9272 12.6014 21.9272 12.8466V15.2133C20.5954 15.2286 19.344 15.5933 18.257 16.2208H18.0139C17.7719 16.2208 17.5718 16.0192 17.5718 15.7728V12.8466C17.5718 12.6003 17.7708 12.3986 18.0139 12.3986ZM2.42275 2.47033H4.65717V5.49169C4.65717 6.33156 5.04279 7.07401 5.66483 7.59051C6.19074 8.02715 6.8899 8.29785 7.63768 8.29785C8.38435 8.29785 9.08463 8.02715 9.60998 7.59051C10.232 7.07401 10.6176 6.33156 10.6176 5.49169V2.47033H15.1301V5.49169C15.1301 6.33156 15.5151 7.07401 16.1372 7.59051C16.6631 8.02715 17.3622 8.29785 18.11 8.29785C18.8572 8.29785 19.557 8.02715 20.0823 7.59051C20.7049 7.07401 21.09 6.33156 21.09 5.49169V2.47033H23.4228C24.0878 2.47033 24.6937 2.74726 25.1335 3.1924C25.5733 3.6364 25.8461 4.2503 25.8461 4.92536V16.2638C25.5957 16.1155 25.3369 15.9812 25.0698 15.8623V9.57832H0.776287V24.1205C0.776287 25.1818 1.63361 26.0511 2.68152 26.0511H15.0434C15.1619 26.3213 15.2955 26.584 15.443 26.8372H2.42275C1.75824 26.8372 1.15297 26.5608 0.713693 26.1163C0.272735 25.6689 0 25.0555 0 24.3827V4.92536C0 4.25143 0.272735 3.6381 0.711457 3.19296C1.15186 2.7467 1.75768 2.47033 2.42275 2.47033ZM6.46739 0.97182C6.46739 0.435507 6.99106 0 7.63768 0C8.28431 0 8.80743 0.435507 8.80743 0.97182V5.49169C8.80743 6.02744 8.28431 6.46351 7.63768 6.46351C6.99106 6.46351 6.46739 6.02744 6.46739 5.49169V0.97182ZM16.9403 0.97182C16.9403 0.435507 17.4634 0 18.11 0C18.7566 0 19.2798 0.435507 19.2798 0.97182V5.49169C19.2798 6.02744 18.7566 6.46351 18.11 6.46351C17.4634 6.46351 16.9403 6.02744 16.9403 5.49169V0.97182ZM4.36096 12.3986H7.83218C8.07529 12.3986 8.27425 12.6014 8.27425 12.8466V15.7728C8.27425 16.018 8.07417 16.2208 7.83218 16.2208H4.36096C4.1184 16.2208 3.91832 16.0192 3.91832 15.7728V12.8466C3.91832 12.6003 4.11784 12.3986 4.36096 12.3986ZM4.36096 18.622H7.83218C8.07529 18.622 8.27425 18.8248 8.27425 19.07V21.9962C8.27425 22.2414 8.07417 22.4442 7.83218 22.4442H4.36096C4.1184 22.4442 3.91832 22.2426 3.91832 21.9962V19.07C3.91832 18.8236 4.11784 18.622 4.36096 18.622ZM11.2235 12.3986H14.6947C14.9378 12.3986 15.1368 12.6014 15.1368 12.8466V15.7728C15.1368 16.018 14.9367 16.2208 14.6947 16.2208H11.2235C10.9815 16.2208 10.7814 16.0192 10.7814 15.7728V12.8466C10.7814 12.6003 10.9804 12.3986 11.2235 12.3986ZM11.2235 18.622H14.6947C14.9378 18.622 15.1368 18.8248 15.1368 19.07V19.6142C14.7174 20.5016 14.4704 21.4623 14.4091 22.4442H11.2235C10.9815 22.4442 10.7814 22.2426 10.7814 21.9962V19.07C10.7814 18.8236 10.9804 18.622 11.2235 18.622Z" fill="#0D5F76"/>
<path fill-rule="evenodd" clip-rule="evenodd" d="M22.0144 16.8698C25.3196 16.8698 28 19.5859 28 22.9351C28 26.2838 25.3196 28.9999 22.0144 28.9999C18.7097 28.9999 16.0293 26.2838 16.0293 22.9351C16.0293 19.5859 18.7097 16.8698 22.0144 16.8698ZM20.2857 22.0771L21.2655 23.015L23.6077 20.5713C23.8 20.3748 23.9202 20.2156 24.1566 20.4625L24.9239 21.2599C25.1765 21.5119 25.1637 21.6609 24.9261 21.8959L21.7042 25.1461C21.2023 25.6439 21.2901 25.6745 20.782 25.1636L18.9936 23.3616C18.888 23.246 18.8986 23.1283 19.0154 23.0127L19.9063 22.076C20.0415 21.9316 20.1488 21.9441 20.2857 22.0771Z" fill="#10A64A"/>
</g>
<defs>
<clipPath id="clip0_377_5">
<rect width="28" height="29" fill="white"/>
</clipPath>
</defs>
</svg>
