<svg width="29" height="28" viewBox="0 0 29 28" fill="none" xmlns="http://www.w3.org/2000/svg">
<g clip-path="url(#clip0_377_21)">
<path d="M2.19591 1.28296H22.8779C24.0842 1.28296 25.074 2.28093 25.074 3.49792V8.64146H0.00012207V3.49758C0.00012207 2.28093 0.989577 1.28296 2.19591 1.28296Z" fill="#0D5F76"/>
<path d="M22.8779 25.0424H2.19607C0.990588 25.0424 0 24.0433 0 22.8275V8.11047H25.0743V22.8272C25.0743 24.0453 24.0854 25.0424 22.8779 25.0424Z" fill="#808080"/>
<path fill-rule="evenodd" clip-rule="evenodd" d="M2.43058 24.3329H22.6435C23.5936 24.3329 24.3708 23.5468 24.3708 22.5907V8.11047H0.703491V22.591C0.703491 23.5485 1.48066 24.3329 2.43058 24.3329Z" fill="#BEE4EC"/>
<path fill-rule="evenodd" clip-rule="evenodd" d="M13.6666 24.3329H22.6435C23.5936 24.3329 24.3707 23.5467 24.3707 22.5906V12.1398C23.5118 11.8578 22.5953 11.7046 21.6431 11.7046C16.7829 11.7046 12.8428 15.6782 12.8428 20.58C12.8428 21.9213 13.1383 23.1928 13.6666 24.3329Z" fill="#BEE4EC"/>
<path d="M17.4446 2.81396C18.6126 2.81396 19.561 3.77121 19.561 4.9485C19.561 6.12533 18.6118 7.08286 17.4446 7.08286C16.2782 7.08286 15.3284 6.12487 15.3284 4.9485C15.3284 3.77069 16.2775 2.81396 17.4446 2.81396ZM7.54058 2.81396C8.70851 2.81396 9.65696 3.77121 9.65696 4.9485C9.65696 6.12533 8.70777 7.08286 7.54058 7.08286C6.37418 7.08286 5.42432 6.12487 5.42432 4.9485C5.42432 3.77069 6.37339 2.81396 7.54058 2.81396Z" fill="#FAEAE9"/>
<path fill-rule="evenodd" clip-rule="evenodd" d="M4.60174 17.0927H7.52077C7.69658 17.0927 7.84022 17.2424 7.84022 17.4147V20.1575C7.84022 20.3299 7.69177 20.4794 7.52077 20.4794H4.60174C4.43074 20.4794 4.28223 20.3346 4.28223 20.1575V17.4147C4.28223 17.2377 4.42592 17.0927 4.60174 17.0927ZM17.554 10.8394H20.4726C20.6484 10.8394 20.7922 10.9871 20.7922 11.1613V11.7461C19.5378 11.867 18.3242 12.2597 17.2344 12.8975V11.1613C17.2344 10.9843 17.3782 10.8394 17.554 10.8394ZM11.0695 10.8394H14.0705C14.2463 10.8394 14.39 10.9888 14.39 11.1613V13.9042C14.39 14.0767 14.2418 14.2261 14.0705 14.2261H11.0695C10.8982 14.2261 10.7501 14.0813 10.7501 13.9042V11.1613C10.7501 10.9843 10.8937 10.8394 11.0695 10.8394ZM4.60174 10.8394H7.52077C7.69658 10.8394 7.84022 10.9888 7.84022 11.1613V13.9042C7.84022 14.0767 7.69205 14.2261 7.52077 14.2261H4.60174C4.4304 14.2261 4.28223 14.0813 4.28223 13.9042V11.1613C4.28223 10.9843 4.42592 10.8394 4.60174 10.8394ZM11.0695 17.0927H13.5486C13.1068 18.134 12.8573 19.2781 12.8441 20.4794H11.0695C10.8984 20.4794 10.7501 20.3346 10.7501 20.1575V17.4147C10.7501 17.2377 10.8937 17.0927 11.0695 17.0927Z" fill="#1A1A1A"/>
<path d="M16.441 15.3337C17.8774 13.8848 19.7603 13.1603 21.6429 13.1603C23.5255 13.1603 25.4084 13.8848 26.845 15.3337C28.2814 16.7824 28.9999 18.6814 28.9999 20.5801C28.9999 22.4787 28.2814 24.3778 26.845 25.8267C25.4084 27.2754 23.5255 28 21.6429 28C19.7603 28 17.8774 27.2754 16.441 25.8267C15.0044 24.3778 14.286 22.4787 14.286 20.5801C14.286 18.6814 15.0044 16.7824 16.441 15.3337Z" fill="#1A1A1A"/>
<path fill-rule="evenodd" clip-rule="evenodd" d="M17.0226 15.9202C19.5745 13.3466 23.7117 13.3466 26.2635 15.9202C28.8153 18.4939 28.8153 22.6665 26.2635 25.2401C23.7117 27.8138 19.5745 27.8138 17.0226 25.2401C14.4708 22.6665 14.4708 18.4939 17.0226 15.9202Z" fill="#BEE4EC"/>
<path fill-rule="evenodd" clip-rule="evenodd" d="M22.7162 17.4104V19.4978H24.7858C24.9556 19.4978 25.0944 19.6394 25.0944 19.8087V21.3513C25.0944 21.5206 24.954 21.6622 24.7858 21.6622H22.7162V23.7495C22.7162 23.9192 22.5757 24.0608 22.4079 24.0608H20.8783C20.7105 24.0608 20.5701 23.9211 20.5701 23.7495V21.6622H18.5001C18.3322 21.6622 18.1918 21.5226 18.1918 21.3513V19.8087C18.1918 19.6374 18.3306 19.4978 18.5001 19.4978H20.5701V17.4104C20.5702 17.328 20.6028 17.249 20.6605 17.1907C20.7183 17.1325 20.7966 17.0997 20.8783 17.0995H22.4079C22.5777 17.0995 22.7162 17.2428 22.7162 17.4104Z" fill="#0D5F76"/>
<path fill-rule="evenodd" clip-rule="evenodd" d="M7.54068 3.15796C8.52118 3.15796 9.31602 3.95965 9.31602 4.94849C9.31602 5.93721 8.52118 6.73884 7.54068 6.73884C6.56034 6.73884 5.7655 5.93721 5.7655 4.94849C5.7655 3.95965 6.56034 3.15796 7.54068 3.15796ZM17.4447 3.15796C18.4252 3.15796 19.2201 3.95965 19.2201 4.94849C19.2201 5.93721 18.4252 6.73884 17.4447 6.73884C16.4644 6.73884 15.6696 5.93721 15.6696 4.94849C15.6696 3.95965 16.4644 3.15796 17.4447 3.15796Z" fill="#BEE4EC"/>
<path d="M16.3843 0.876755C16.3843 0.393077 16.8586 0 17.4446 0C18.0311 0 18.5053 0.393077 18.5053 0.876755V4.95462C18.5053 5.4383 18.0311 5.83138 17.4446 5.83138C16.8586 5.83138 16.3843 5.4383 16.3843 4.95462V0.876755ZM6.47986 0.876755C6.47986 0.393077 6.95417 0 7.54028 0C8.12663 0 8.60094 0.393077 8.60094 0.876755V4.95462C8.60094 5.4383 8.12663 5.83138 7.54028 5.83138C6.95417 5.83138 6.47986 5.4383 6.47986 4.95462V0.876755Z" fill="#1A1A1A"/>
</g>
<defs>
<clipPath id="clip0_377_21">
<rect width="29" height="28" fill="white"/>
</clipPath>
</defs>
</svg>
