<svg width="39" height="27" viewBox="0 0 39 27" fill="none" xmlns="http://www.w3.org/2000/svg">
<g clip-path="url(#clip0_379_4)">
<path d="M7.66478 -3.96369e-05H31.7097C32.0928 -0.00296669 32.4726 0.072085 32.826 0.22059C33.1795 0.369095 33.4994 0.587977 33.7663 0.864037C34.3101 1.43808 34.6743 2.15979 34.8137 2.93973L38.9397 23.6648C38.9711 23.8244 38.987 23.9867 38.9873 24.1495C38.9818 24.5022 38.9063 24.8503 38.7652 25.1734C38.624 25.4964 38.4201 25.7879 38.1653 26.0307C37.6951 26.4948 37.1008 26.8117 36.4546 26.9426C36.2457 26.9855 36.033 27.0068 35.8198 27.0063H12.0954C12.0129 27.0063 11.9304 27.0063 11.8511 27.0063H1.84398C0.457015 26.8533 -0.0888831 25.8266 -1.58697e-05 24.4715L3.88158 4.70296C4.11009 3.81975 4.32274 2.89509 4.59251 2.15218C4.63665 2.0125 4.69293 1.877 4.76073 1.74724L4.7766 1.71536C4.91515 1.44554 5.09629 1.20004 5.31297 0.988387C5.77219 0.530992 6.35103 0.213702 6.98241 0.0732953C7.20666 0.0247962 7.43539 0.000215008 7.66478 -3.96369e-05ZM31.7097 2.07566H7.66478C7.58266 2.07576 7.50078 2.0843 7.42039 2.10116C7.18056 2.15495 6.96061 2.27538 6.78563 2.44871C6.67059 2.54956 6.59893 2.69127 6.58568 2.84408C7.08397 8.15927 9.80711 17.9511 11.029 23.6425C11.0962 24.0258 11.2688 24.3825 11.5273 24.6724C11.6035 24.7514 11.6947 24.8142 11.7956 24.857C11.8965 24.8997 12.005 24.9215 12.1145 24.9211H35.8642C35.9377 24.92 36.011 24.9125 36.0832 24.8988C36.3323 24.8481 36.5615 24.7263 36.7434 24.548C36.8626 24.4413 36.9374 24.2932 36.9529 24.1335V24.0538L32.8269 3.32873C32.7671 2.95098 32.5995 2.59877 32.3445 2.31479C32.2674 2.23385 32.1748 2.1695 32.0722 2.12565C31.9696 2.0818 31.8593 2.05936 31.7478 2.05971L31.7097 2.07566Z" fill="#0D6A84"/>
<g clip-path="url(#clip1_379_4)">
<path d="M22 6C23.0858 6 24.1133 6.24737 25.0314 6.68858C24.6556 6.9859 24.3072 7.27132 23.9825 7.54604C23.3641 7.32127 22.6969 7.19878 22.0012 7.19878C20.3993 7.19878 18.9484 7.84811 17.8994 8.89823C16.8493 9.94835 16.2 11.3981 16.2 13C16.2 14.6019 16.8493 16.0516 17.8994 17.1018C18.9495 18.1519 20.3993 18.8012 22.0012 18.8012C23.6031 18.8012 25.054 18.1519 26.103 17.1018C27.1531 16.0516 27.8024 14.6019 27.8024 13C27.8024 12.6194 27.7655 12.246 27.6954 11.8857C27.9963 11.4932 28.3043 11.1019 28.6194 10.7142C28.8668 11.4302 29.0012 12.1996 29.0012 13C29.0012 14.9326 28.2175 16.6831 26.9509 17.9497C25.6843 19.2163 23.9337 20 22.0012 20C20.0686 20 18.318 19.2163 17.0515 17.9497C15.7837 16.6831 15 14.9326 15 13C15 11.0674 15.7837 9.31685 17.0503 8.05029C18.3169 6.78372 20.0674 6 22 6ZM18.739 11.85L20.4468 11.8274L20.5741 11.8607C20.919 12.0593 21.2436 12.2864 21.5469 12.5433C21.7657 12.7288 21.975 12.931 22.1736 13.1498C22.7861 12.1639 23.439 11.2589 24.1288 10.4264C24.884 9.51427 25.6855 8.68654 26.5275 7.93136L26.694 7.86714H28.5576L28.1818 8.28457C27.027 9.56779 25.9793 10.8938 25.0326 12.2615C24.086 13.6303 23.2392 15.0432 22.4864 16.4976L22.2521 16.9495L22.0369 16.4893C21.6397 15.6366 21.1639 14.8541 20.5967 14.1548C20.0294 13.4555 19.3694 12.8347 18.5999 12.3067L18.739 11.85Z" fill="#01A601"/>
</g>
</g>
<defs>
<clipPath id="clip0_379_4">
<rect width="39" height="27" fill="white"/>
</clipPath>
<clipPath id="clip1_379_4">
<rect width="14" height="14" fill="white" transform="translate(15 6)"/>
</clipPath>
</defs>
</svg>
