<svg width="25" height="28" viewBox="0 0 25 28" fill="none" xmlns="http://www.w3.org/2000/svg">
<g clip-path="url(#clip0_376_9)">
<path fill-rule="evenodd" clip-rule="evenodd" d="M13.1704 0.00715335L0.637131 1.94518C0.287975 1.99927 0 2.373 0 2.74454V25.6315C0 26.0014 0.284283 26.144 0.637131 26.1948L13.1704 27.9962C13.5227 28.0465 13.8075 27.5717 13.8075 27.1969V0.570475C13.8075 0.195656 13.5158 -0.0458459 13.1704 0.00715335ZM19.7611 17.9876L19.7605 16.126C19.73 16.1353 19.6973 16.1408 19.664 16.1408H16.8439C16.6566 16.1408 16.5037 15.979 16.5037 15.7884V12.1713C16.5037 11.9812 16.6603 11.8189 16.8439 11.8189H19.664C19.6973 11.8189 19.7294 11.8243 19.76 11.8336V9.97265C19.76 9.62898 20.029 9.34977 20.3608 9.34977C20.5343 9.34977 20.6904 9.42627 20.8001 9.54811L24.8091 13.422C25.0512 13.6553 25.0649 14.0487 24.8397 14.2995L20.7811 18.4296C20.5454 18.67 20.1656 18.6667 19.9335 18.4225C19.8236 18.3063 19.7617 18.1503 19.7611 17.9876ZM15.1588 25.0654H16.7948V18.8754H18.1329V25.0987C18.1329 25.4686 17.9852 25.8063 17.7495 26.0516C17.5137 26.2986 17.1867 26.451 16.827 26.451H15.1588V25.0654ZM16.7948 9.08478V2.89479H15.1588V1.50916H16.827C17.1862 1.50916 17.5132 1.6616 17.7495 1.90638C17.9852 2.15116 18.1329 2.48992 18.1329 2.86201V9.08478H16.7948ZM12.1709 12.2822L10.856 11.9719V16.0282L12.1709 15.6359V12.2822Z" fill="#0D5F76"/>
</g>
<defs>
<clipPath id="clip0_376_9">
<rect width="25" height="28" fill="white"/>
</clipPath>
</defs>
</svg>
