<svg width="24" height="28" viewBox="0 0 24 28" fill="none" xmlns="http://www.w3.org/2000/svg">
<g clip-path="url(#clip0_376_4)">
<path fill-rule="evenodd" clip-rule="evenodd" d="M13.5486 0.00680596L0.655385 1.94525C0.296471 1.99884 0 2.37286 0 2.74414V25.6315C0 26.0006 0.29267 26.1438 0.655385 26.1941L13.5486 27.9959C13.9108 28.0462 14.2034 27.5715 14.2034 27.1964V0.570021C14.2034 0.194909 13.9032 -0.0462347 13.5486 0.00680596ZM15.5935 25.065H17.2773V19.9643L18.6532 20.7047V25.0983C18.6532 25.468 18.5017 25.8059 18.259 26.0514C18.0163 26.298 17.6796 26.4506 17.3099 26.4506H15.5935V25.065ZM20.6503 9.97189V11.8332C20.6818 11.8239 20.7149 11.8185 20.7486 11.8185H23.6498C23.8387 11.8185 24 11.9809 24 12.1712V15.7878C24 15.9786 23.8425 16.1405 23.6498 16.1405H20.7486C20.7149 16.1405 20.6813 16.1355 20.6503 16.1262V17.987C20.6481 18.144 20.5895 18.3015 20.4711 18.4223C20.2328 18.6662 19.8424 18.6695 19.5996 18.4294L15.4246 14.2993C15.1928 14.0484 15.2069 13.6552 15.4561 13.4217L19.5801 9.54811C19.6377 9.48537 19.7076 9.43534 19.7853 9.40117C19.8631 9.36701 19.947 9.34945 20.0319 9.34962C20.3734 9.34962 20.6503 9.62849 20.6503 9.97189ZM17.2773 7.99517V2.89451H15.5935V1.5089H17.3099C17.6796 1.5089 18.0157 1.66146 18.259 1.90588C18.5017 2.1503 18.6532 2.48933 18.6532 2.86116V7.25478L17.2773 7.99517ZM12.5202 12.2816L11.1676 11.9716V16.0278L12.5202 15.6352V12.2816Z" fill="#0D5F76"/>
</g>
<defs>
<clipPath id="clip0_376_4">
<rect width="24" height="28" fill="white"/>
</clipPath>
</defs>
</svg>
