<svg width="20" height="20" viewBox="0 0 20 20" fill="none" xmlns="http://www.w3.org/2000/svg">
<path d="M5.44386 0.769231C5.44386 0.3444 5.12151 0 4.72387 0C4.32623 0 4.00388 0.3444 4.00388 0.769231V2.38898C2.62213 2.50719 1.71503 2.7973 1.04861 3.5093C0.382182 4.2213 0.110639 5.19043 0 6.66667H19.0476C18.937 5.19043 18.6654 4.2213 17.999 3.5093C17.3326 2.7973 16.4255 2.50719 15.0438 2.38898V0.769231C15.0438 0.3444 14.7214 0 14.3238 0C13.9262 0 13.6038 0.3444 13.6038 0.769231V2.32092C12.9651 2.30769 12.2492 2.30769 11.4438 2.30769H7.60385C6.79838 2.30769 6.08252 2.30769 5.44386 2.32092V0.769231Z" fill="#C0A65C"/>
<path fill-rule="evenodd" clip-rule="evenodd" d="M0 9.89307C0 9.0451 1.08211e-07 8.29143 0.0122858 7.61902H19.0353C19.0476 8.29143 19.0476 9.0451 19.0476 9.89307V11.9145C19.0476 15.726 19.0476 17.6318 17.9318 18.8158C16.8161 20 15.0202 20 11.4286 20H7.61905C4.02739 20 2.23157 20 1.11578 18.8158C1.13533e-07 17.6318 0 15.726 0 11.9145V9.89307ZM14.2857 11.9145C14.8117 11.9145 15.2381 11.462 15.2381 10.9038C15.2381 10.3456 14.8117 9.89307 14.2857 9.89307C13.7597 9.89307 13.3333 10.3456 13.3333 10.9038C13.3333 11.462 13.7597 11.9145 14.2857 11.9145ZM14.2857 15.9572C14.8117 15.9572 15.2381 15.5047 15.2381 14.9465C15.2381 14.3883 14.8117 13.9358 14.2857 13.9358C13.7597 13.9358 13.3333 14.3883 13.3333 14.9465C13.3333 15.5047 13.7597 15.9572 14.2857 15.9572ZM10.4762 10.9038C10.4762 11.462 10.0498 11.9145 9.52381 11.9145C8.99781 11.9145 8.57143 11.462 8.57143 10.9038C8.57143 10.3456 8.99781 9.89307 9.52381 9.89307C10.0498 9.89307 10.4762 10.3456 10.4762 10.9038ZM10.4762 14.9465C10.4762 15.5047 10.0498 15.9572 9.52381 15.9572C8.99781 15.9572 8.57143 15.5047 8.57143 14.9465C8.57143 14.3883 8.99781 13.9358 9.52381 13.9358C10.0498 13.9358 10.4762 14.3883 10.4762 14.9465ZM4.7619 11.9145C5.28789 11.9145 5.71429 11.462 5.71429 10.9038C5.71429 10.3456 5.28789 9.89307 4.7619 9.89307C4.23592 9.89307 3.80952 10.3456 3.80952 10.9038C3.80952 11.462 4.23592 11.9145 4.7619 11.9145ZM4.7619 15.9572C5.28789 15.9572 5.71429 15.5047 5.71429 14.9465C5.71429 14.3883 5.28789 13.9358 4.7619 13.9358C4.23592 13.9358 3.80952 14.3883 3.80952 14.9465C3.80952 15.5047 4.23592 15.9572 4.7619 15.9572Z" fill="#C0A65C"/>
</svg>
