<svg width="28" height="26" viewBox="0 0 28 26" fill="none" xmlns="http://www.w3.org/2000/svg">
<g clip-path="url(#clip0_379_23)">
<path d="M14 3.20984C14.3988 3.20966 14.7965 3.24438 15.1877 3.31352C15.9674 3.45266 16.709 3.72653 17.3706 4.11967C17.7015 4.31515 18.0095 4.53987 18.2898 4.79041C18.5713 5.04126 18.8243 5.31625 19.0451 5.61137C19.2649 5.90581 19.4526 6.21826 19.6057 6.54448C19.7576 6.87086 19.8738 7.20957 19.9525 7.55587C20.1077 8.25012 20.1077 8.96481 19.9525 9.65906C19.7963 10.3537 19.4889 11.0143 19.0475 11.6036C18.6027 12.1896 18.0339 12.6927 17.3729 13.0847C16.7114 13.4778 15.9698 13.7517 15.19 13.8908C14.4103 14.0261 13.6087 14.0261 12.829 13.8908C12.4403 13.8214 12.0601 13.7186 11.6936 13.584C11.3274 13.4476 10.9766 13.2804 10.6461 13.0847C10.3148 12.8879 10.0061 12.6626 9.72448 12.4118L9.70785 12.3949C9.43365 12.1488 9.18704 11.8796 8.97151 11.5909C8.75175 11.2964 8.56404 10.984 8.41094 10.6578C8.25982 10.3313 8.14448 9.99259 8.06652 9.64637C7.91451 8.95255 7.91451 8.2391 8.06652 7.54529C8.14448 7.19906 8.25982 6.86036 8.41094 6.5339C8.56347 6.20637 8.75203 5.8931 8.97388 5.59868C9.41485 5.01344 9.97961 4.51036 10.6366 4.11756C10.9666 3.921 11.3174 3.75375 11.6841 3.61821C12.053 3.48392 12.4356 3.38188 12.8266 3.31352C13.2177 3.24417 13.6155 3.20944 14.0143 3.20984H14ZM13.3373 5.11414L16.5416 11.3412L16.6532 11.2544C16.7007 11.2164 16.7554 11.1698 16.8171 11.1148C17.0025 10.9512 17.1695 10.7719 17.3159 10.5795C17.4601 10.3869 17.5827 10.182 17.6817 9.96798C18.0855 9.0981 18.0855 8.12106 17.6817 7.25118C17.5823 7.03622 17.4589 6.83066 17.3136 6.63758C17.1683 6.44431 17.0021 6.26429 16.8171 6.10014L16.8005 6.08321C16.6188 5.92663 16.4217 5.785 16.2114 5.66004C15.9952 5.53097 15.7653 5.42112 15.525 5.33208C15.2846 5.24333 15.0347 5.17669 14.7791 5.13318C14.5217 5.08795 14.26 5.06527 13.9976 5.06547C13.8884 5.06547 13.7815 5.06547 13.6793 5.07605C13.5772 5.08663 13.4608 5.0951 13.3658 5.10779H13.3373V5.11414ZM14.6627 12.1156L11.4584 5.87163L11.3444 5.95838C11.2922 6.0007 11.2375 6.04724 11.1829 6.09591C10.8118 6.42509 10.5172 6.81623 10.3159 7.24695C10.2163 7.46107 10.1415 7.68368 10.0927 7.91134C9.99118 8.37031 9.99118 8.84251 10.0927 9.30148C10.1418 9.52906 10.2166 9.75165 10.3159 9.96586C10.4192 10.18 10.544 10.3854 10.6888 10.5795C10.9823 10.9678 11.3574 11.3019 11.7934 11.5634C12.0096 11.6918 12.2395 11.801 12.4798 11.8892C12.9634 12.0672 13.4816 12.1585 14.0048 12.1579C14.1164 12.1579 14.2233 12.1579 14.3254 12.1473C14.4276 12.1368 14.544 12.1283 14.639 12.1135H14.6675L14.6627 12.1156Z" fill="#E4AB55"/>
<path d="M24.3017 6.52962L18.5274 1.21452V1.16162H2.95494V9.73307L11.0832 16.2077L11.1188 16.2373L13.8623 18.4209L24.9407 9.80925V7.69336L24.3136 6.53174L24.3017 6.52962ZM26.2328 8.79574C26.3909 8.66816 26.5968 8.59795 26.81 8.59896C26.9831 8.60079 27.1523 8.64469 27.2994 8.72591C27.4123 8.78635 27.5134 8.86282 27.5986 8.95231C27.8413 9.20464 27.9825 9.52182 28.0001 9.85368V24.8003C27.9985 25.1176 27.8569 25.4216 27.6058 25.6466C27.3537 25.8711 27.0121 25.9974 26.6557 25.9979H1.34686C0.990667 25.9965 0.649386 25.8703 0.396744 25.6466C0.271448 25.5358 0.172082 25.4039 0.104399 25.2587C0.0367164 25.1134 0.00206261 24.9576 0.00244453 24.8003V9.85368C0.0202557 9.51652 0.16501 9.19453 0.413371 8.93962C0.500953 8.8564 0.601794 8.78511 0.712658 8.72803C0.856071 8.65048 1.01998 8.60813 1.18772 8.60531C1.35596 8.60288 1.52125 8.64484 1.66278 8.72591V0.579753C1.66276 0.427448 1.73002 0.281254 1.85003 0.172769C1.97004 0.0642845 2.13315 0.00222343 2.30411 0L18.7412 0C18.8367 7.47738e-05 18.9311 0.0191018 19.0173 0.0557C19.1036 0.0922983 19.1797 0.145549 19.24 0.211589L26.0452 6.47249C26.1638 6.57965 26.2303 6.72404 26.2305 6.87451V7.04167C26.2305 7.06494 26.2305 7.08822 26.2305 7.11361C26.2305 7.139 26.2305 7.16016 26.2305 7.18343V8.79785L26.2328 8.79574ZM13.4252 19.6227L10.6652 17.4264L1.30411 24.7347V24.8003C1.30002 24.8091 1.30002 24.819 1.30411 24.8278C1.31417 24.8306 1.32493 24.8306 1.33499 24.8278H26.6533C26.6633 24.8306 26.6741 24.8306 26.6842 24.8278C26.6882 24.819 26.6882 24.8091 26.6842 24.8003V24.7559L17.2091 17.3503L14.2875 19.627C14.1689 19.7205 14.016 19.7722 13.8576 19.7722C13.6991 19.7722 13.5462 19.7205 13.4276 19.627L13.4252 19.6227ZM9.68891 16.6605L1.30411 9.9764V23.1965L9.68891 16.6499V16.6605ZM26.696 23.2324V9.97005L18.1948 16.5864L26.696 23.2218V23.2324Z" fill="#0D5F76"/>
</g>
<defs>
<clipPath id="clip0_379_23">
<rect width="28" height="26" fill="white"/>
</clipPath>
</defs>
</svg>
