<svg width="20" height="20" viewBox="0 0 20 20" fill="none" xmlns="http://www.w3.org/2000/svg">
<path d="M5.69849 0H13.9318C17.508 0 19.64 2.132 19.64 5.70826V13.9317C19.64 17.5178 17.508 19.6498 13.9318 19.6498H5.70831C2.13205 19.6498 4.95911e-05 17.5178 4.95911e-05 13.9415V5.70826C-0.00977516 2.132 2.12223 0 5.69849 0ZM14.0693 3.43871C14.0693 3.03589 13.7353 2.70185 13.3324 2.70185C12.9296 2.70185 12.5956 3.03589 12.5956 3.43871V7.27042C12.5956 7.67324 12.9296 8.00729 13.3324 8.00729C13.7353 8.00729 14.0693 7.67324 14.0693 7.27042V3.43871ZM12.2489 14.1786C12.4488 14.2673 12.5956 14.4556 12.5956 14.6743V16.2111C12.5956 16.6139 12.9296 16.9479 13.3324 16.9479C13.7353 16.9479 14.0693 16.6139 14.0693 16.2111V14.6743C14.0693 14.4556 14.2161 14.2673 14.4159 14.1784C15.3537 13.7611 16.0048 12.8293 16.0048 11.7408C16.0048 10.267 14.8062 9.05855 13.3324 9.05855C11.8587 9.05855 10.6502 10.2572 10.6502 11.7408C10.6502 12.8295 11.3094 13.7613 12.2489 14.1786ZM5.56094 16.2111C5.56094 16.6139 5.89499 16.9479 6.29781 16.9479C6.70063 16.9479 7.03467 16.6139 7.03467 16.2111V12.3794C7.03467 11.9765 6.70063 11.6425 6.29781 11.6425C5.89499 11.6425 5.56094 11.9765 5.56094 12.3794V16.2111ZM6.29781 10.5814C7.77154 10.5814 8.98 9.38278 8.98 7.89922C8.98 6.81047 8.32085 5.87865 7.3813 5.46139C7.18146 5.37264 7.03467 5.18441 7.03467 4.96571V3.43871C7.03467 3.03589 6.70063 2.70185 6.29781 2.70185C5.89499 2.70185 5.56094 3.03589 5.56094 3.43871V4.97553C5.56094 5.19424 5.41416 5.38242 5.21432 5.47134C4.27663 5.88865 3.62544 6.82039 3.62544 7.90904C3.62544 9.38278 4.82407 10.5814 6.29781 10.5814Z" fill="#C0A65C"/>
</svg>
