<svg width="30" height="20" viewBox="0 0 30 20" fill="none" xmlns="http://www.w3.org/2000/svg">
<path d="M0.833008 1.5C0.833008 0.67158 1.4822 0 2.28301 0H28.383C29.1838 0 29.833 0.67158 29.833 1.5C29.833 2.32842 29.1838 3 28.383 3H2.28301C1.4822 3 0.833008 2.32842 0.833008 1.5Z" fill="#0D6A84"/>
<path d="M1 10.4166C1 9.58818 1.64919 8.91663 2.45 8.91663H28.55C29.3508 8.91663 30 9.58818 30 10.4166C30 11.2451 29.3508 11.9166 28.55 11.9166H2.45C1.64919 11.9166 1 11.2451 1 10.4166Z" fill="#0D6A84"/>
<path d="M2.28301 16.9166C1.4822 16.9166 0.833008 17.5882 0.833008 18.4166C0.833008 19.2451 1.4822 19.9166 2.28301 19.9166H28.383C29.1838 19.9166 29.833 19.2451 29.833 18.4166C29.833 17.5882 29.1838 16.9166 28.383 16.9166H2.28301Z" fill="#0D6A84"/>
</svg>
