<svg width="143" height="84" viewBox="0 0 143 84" fill="none" xmlns="http://www.w3.org/2000/svg">
<mask id="mask0_72_480" style="mask-type:luminance" maskUnits="userSpaceOnUse" x="0" y="0" width="142" height="41">
<path d="M0.813232 0H141.65V40.9486H0.813232V0Z" fill="white"/>
</mask>
<g mask="url(#mask0_72_480)">
<path d="M45.1996 3.5259L68.6889 27.0153H135.945L141.811 33.9819L135.945 40.9456H129.29L127.428 37.223H123.086L121.225 40.9456H117.05L115.189 37.223H110.903L109.042 40.9456H104.896L103.035 37.223H98.6929L96.8316 40.9456H68.7183L41.8146 14.0449L14.7729 40.9456H0.842529L15.363 26.4222V12.3509H25.0923V16.6959C30.6468 11.1384 36.2307 5.55454 41.7882 0L45.1996 3.5259ZM71.34 29.6663L72.2706 30.5969H135.493V29.6663H71.34Z" fill="#E4AB55"/>
</g>
<path d="M35.7816 28.8766H40.884V34.1229H35.7816V28.8766ZM42.575 28.8766H47.6804V34.1229H42.575V28.8766ZM47.6804 35.673V40.9193H42.575V35.673H47.6804ZM40.884 40.9457H35.7816V35.7023H40.884V40.9457Z" fill="#FFBD59"/>
<path d="M17.1467 63.8066C17.1467 60.6125 15.2913 58.6396 12.2263 57.5475L7.55252 55.8447C5.02773 54.9053 4.08827 53.684 4.08827 51.7463C4.08827 48.6814 6.58957 47.7771 8.49198 47.7771C12.0502 47.7771 14.2227 50.8773 14.5515 53.2142H14.9507V47.6127H14.7159C14.117 48.4113 13.1188 48.5522 12.1206 48.1529C11.1225 47.7771 10.0186 47.3779 8.5272 47.3779C4.82809 47.3779 1.79834 49.8087 1.79834 53.1438C1.79834 56.3379 3.48937 58.0407 6.55435 59.1798L10.7584 60.7416C13.0836 61.6106 14.2227 63.243 14.2227 65.2041C14.2227 68.1046 12.3907 70.0305 8.98519 70.0305C5.39177 70.0305 2.29156 66.5428 1.25816 62.8789H0.858887V69.7722H1.12898C1.56348 69.0324 2.29156 68.5979 3.92387 69.0324C5.82627 69.5725 6.78921 70.465 9.41969 70.465C14.9507 70.465 17.1467 66.2375 17.1467 63.8066Z" fill="white"/>
<path d="M44.1662 61.9042H43.8374C43.0036 66.8716 38.5412 70.1715 35.8755 70.1715C32.1059 70.1715 30.0038 65.9674 30.0038 59.5791C30.0038 53.1086 31.9415 47.7537 36.0751 47.7537C40.197 47.7537 42.3342 51.6759 43.1328 55.1167H43.4968V48.4113H43.2619C42.9331 48.8106 42.3342 49.0102 41.7001 49.0102C41.2304 49.0102 40.7371 48.9162 40.2674 48.6461C39.2692 48.0825 37.907 47.3427 36.1338 47.3427C32.2703 47.3427 26.34 51.2179 26.34 59.1094C26.34 65.709 30.8376 70.5707 35.8402 70.5707C37.1085 70.5707 38.6351 69.9718 39.739 69.4316C40.3379 69.1381 41.0072 69.0089 41.6296 69.0089C42.5691 69.0089 43.4029 69.3025 43.9313 69.8661H44.1662V61.9042Z" fill="white"/>
<path d="M72.3529 69.6313C71.848 70.0071 71.4839 70.1715 70.979 70.1715C70.3448 70.1715 69.5815 70.0305 69.3819 68.7036C69.1823 67.3766 69.2527 65.3333 69.147 63.4778C69.0179 61.3406 68.2898 60.542 66.8219 59.5791C66.2817 59.2385 65.354 58.7453 64.4145 58.44V58.346C67.0215 57.9703 69.5111 56.6433 69.5111 53.8132C69.5111 49.9144 66.2465 47.7537 60.8916 47.7537H53.7634V48.1529H56.0886V69.737H53.7634V70.1362H61.8193V69.737H59.4941V58.4752H62.7235C64.391 58.7101 65.7532 59.3442 65.8824 61.3053C65.9881 63.0081 65.9529 64.934 66.0821 66.8364C66.2465 69.1381 68.0549 70.5707 70.5797 70.5707C71.6131 70.5707 71.9184 70.3006 72.5173 69.9014L72.3529 69.6313ZM66.2465 53.1086C66.2465 56.4789 64.8138 58.0759 62.5826 58.0759H59.4941V48.1529H61.1851C64.9547 48.1529 66.2465 50.0788 66.2465 53.1086Z" fill="white"/>
<path d="M87.9687 69.737H85.6435V48.1529H87.9687V47.7537H79.9128V48.1529H82.238V69.737H79.9128V70.1362H87.9687V69.737Z" fill="white"/>
<path d="M114.69 63.5013H114.349C113.351 67.1417 110.121 69.7017 107.397 69.7017H101.267L113.856 47.7537H98.5309V54.3416H98.8597C99.6935 51.0183 101.76 48.1764 105.33 48.1764H109.757L97.2274 70.1362H114.69V63.5013Z" fill="white"/>
<path d="M143 69.7369H140.698L132.443 47.2487H132.138L124.211 69.7369H121.909V70.1362H127.006V69.7369H124.681L127.006 63.0785H134.803L137.234 69.7369H134.909V70.1362H143V69.7369ZM127.182 62.6088L130.811 52.3804H130.904L134.639 62.6088H127.182Z" fill="white"/>
<path d="M56.0619 78.5126L55.0989 83.3273H53.9833L54.3826 81.3662H52.1983L51.8108 83.3273H50.6835L51.6464 78.5126H52.7738L52.3862 80.4032H54.5705L54.9463 78.5126H56.0619Z" fill="#B38F4B" fill-opacity="0.4"/>
<path d="M62.9424 83.4094C62.455 83.4094 62.0382 83.3243 61.6859 83.1511C61.3336 82.972 61.0635 82.7254 60.8756 82.4112C60.6877 82.1001 60.5938 81.736 60.5938 81.3191C60.5938 80.7731 60.7171 80.2799 60.9695 79.8395C61.2191 79.402 61.5684 79.0586 62.0147 78.8061C62.4668 78.5565 62.9894 78.4303 63.5765 78.4303C64.0521 78.4303 64.469 78.5184 64.8213 78.6886C65.1736 78.8619 65.4437 79.1085 65.6316 79.4285C65.8195 79.7426 65.9134 80.1066 65.9134 80.5206C65.9134 81.0696 65.7872 81.5628 65.5376 82.0002C65.294 82.4406 64.9446 82.7841 64.4925 83.0336C64.0374 83.2861 63.5207 83.4094 62.9424 83.4094ZM63.0363 82.4582C63.3886 82.4582 63.6969 82.376 63.9641 82.2116C64.2283 82.0413 64.4338 81.8123 64.5747 81.5305C64.7156 81.2428 64.7861 80.9257 64.7861 80.5793C64.7861 80.2123 64.6716 79.9217 64.4455 79.7103C64.2165 79.4931 63.8936 79.3815 63.4708 79.3815C63.1185 79.3815 62.8073 79.4696 62.5431 79.6398C62.276 79.8043 62.0734 80.0332 61.9325 80.321C61.7916 80.6028 61.7211 80.9169 61.7211 81.2604C61.7211 81.6215 61.8327 81.9122 62.0617 82.1294C62.2965 82.3496 62.6195 82.4582 63.0363 82.4582Z" fill="#B38F4B" fill-opacity="0.4"/>
<path d="M72.2195 79.4168H70.6812L70.869 78.5126H75.0614L74.8735 79.4168H73.3469L72.5601 83.3273H71.4445L72.2195 79.4168Z" fill="#B38F4B" fill-opacity="0.4"/>
<path d="M80.7876 79.4051L80.588 80.4502H82.8192L82.6431 81.3192H80.4001L80.1887 82.4348H82.8075L82.6313 83.3273H78.897L79.8599 78.5126H83.5003L83.3124 79.4051H80.7876Z" fill="#B38F4B" fill-opacity="0.4"/>
<path d="M88.6751 78.5126H89.8025L89.0157 82.4231H91.423L91.2469 83.3273H87.7122L88.6751 78.5126Z" fill="#B38F4B" fill-opacity="0.4"/>
<path d="M56.0619 78.5126L55.0989 83.3273H53.9833L54.3826 81.3662H52.1983L51.8108 83.3273H50.6835L51.6464 78.5126H52.7738L52.3862 80.4032H54.5705L54.9463 78.5126H56.0619Z" fill="white"/>
<path d="M62.9424 83.4094C62.455 83.4094 62.0382 83.3243 61.6859 83.1511C61.3336 82.972 61.0635 82.7254 60.8756 82.4112C60.6877 82.1001 60.5938 81.736 60.5938 81.3191C60.5938 80.7731 60.7171 80.2799 60.9695 79.8395C61.2191 79.402 61.5684 79.0586 62.0147 78.8061C62.4668 78.5565 62.9894 78.4303 63.5765 78.4303C64.0521 78.4303 64.469 78.5184 64.8213 78.6886C65.1736 78.8619 65.4437 79.1085 65.6316 79.4285C65.8195 79.7426 65.9134 80.1066 65.9134 80.5206C65.9134 81.0696 65.7872 81.5628 65.5376 82.0002C65.294 82.4406 64.9446 82.7841 64.4925 83.0336C64.0374 83.2861 63.5207 83.4094 62.9424 83.4094ZM63.0363 82.4582C63.3886 82.4582 63.6969 82.376 63.9641 82.2116C64.2283 82.0413 64.4338 81.8123 64.5747 81.5305C64.7156 81.2428 64.7861 80.9257 64.7861 80.5793C64.7861 80.2123 64.6716 79.9217 64.4455 79.7103C64.2165 79.4931 63.8936 79.3815 63.4708 79.3815C63.1185 79.3815 62.8073 79.4696 62.5431 79.6398C62.276 79.8043 62.0734 80.0332 61.9325 80.321C61.7916 80.6028 61.7211 80.9169 61.7211 81.2604C61.7211 81.6215 61.8327 81.9122 62.0617 82.1294C62.2965 82.3496 62.6195 82.4582 63.0363 82.4582Z" fill="white"/>
<path d="M72.2195 79.4168H70.6812L70.869 78.5126H75.0614L74.8735 79.4168H73.3469L72.5601 83.3273H71.4445L72.2195 79.4168Z" fill="white"/>
<path d="M80.7876 79.4051L80.588 80.4502H82.8192L82.6431 81.3192H80.4001L80.1887 82.4348H82.8075L82.6313 83.3273H78.897L79.8599 78.5126H83.5003L83.3124 79.4051H80.7876Z" fill="white"/>
<path d="M88.6751 78.5126H89.8025L89.0157 82.4231H91.423L91.2469 83.3273H87.7122L88.6751 78.5126Z" fill="white"/>
<path d="M0 81.633L44.8738 81.633" stroke="white"/>
<path d="M97.2954 81.9148L142.169 81.9148" stroke="white"/>
</svg>
