<svg width="19" height="20" viewBox="0 0 19 20" fill="none" xmlns="http://www.w3.org/2000/svg">
<path d="M0 5V19C0 19.2652 0.100089 19.5196 0.278249 19.7071C0.456408 19.8946 0.698044 20 0.95 20H10.45V4H0.95C0.698044 4 0.456408 4.10536 0.278249 4.29289C0.100089 4.48043 0 4.73478 0 5ZM2.85 7H7.6V9H2.85V7ZM2.85 11H7.6V13H2.85V11ZM2.85 15H7.6V17H2.85V15ZM19 1V19C19 19.2652 18.8999 19.5196 18.7218 19.7071C18.5436 19.8946 18.302 20 18.05 20H12.35V2H7.6V1C7.6 0.734784 7.70009 0.48043 7.87825 0.292893C8.05641 0.105357 8.29804 0 8.55 0H18.05C18.302 0 18.5436 0.105357 18.7218 0.292893C18.8999 0.48043 19 0.734784 19 1Z" fill="#C0A65C"/>
</svg>
