<svg width="20" height="20" viewBox="0 0 20 20" fill="none" xmlns="http://www.w3.org/2000/svg">
<path d="M18.4008 5.20511L17.7388 5.02292V4.65344C17.7388 3.6939 17.0171 2.87407 16.0576 2.87407H12.8291V2.69857C12.8291 1.97121 12.5672 1.29376 12.0645 0.79118C11.5544 0.280926 10.8864 0 10.1703 0C9.45254 0 8.77991 0.280926 8.26965 0.79118C7.90642 1.15432 7.66228 1.60334 7.5506 2.09253L5.09476 1.38731C4.99103 1.35758 4.88444 1.34098 4.77705 1.34098C4.26135 1.34098 3.80225 1.66618 3.66031 2.16099L3.4508 2.87398H3.25093C2.29139 2.87398 1.49209 3.69381 1.49209 4.65335V9.58513L0.0461271 14.6969C-0.130266 15.3119 0.213861 15.9558 0.828827 16.132L1.49209 16.3245V16.6837C1.49209 17.6432 2.29139 18.4066 3.25093 18.4066H8.7858L14.1948 19.9575C14.2985 19.9872 14.4056 20 14.513 20C15.0287 20 15.488 19.6445 15.6299 19.1497L15.8426 18.4066H16.0576C17.0171 18.4066 17.7388 17.6432 17.7388 16.6837V11.6428L19.1854 6.64018C19.3618 6.02522 19.0159 5.38133 18.4008 5.20511ZM8.77866 2.42487C8.83267 2.15796 8.97032 1.91488 9.18036 1.70475C9.4437 1.4415 9.79658 1.30135 10.174 1.30126C10.5484 1.30126 10.8996 1.44873 11.1629 1.71216C11.4317 1.98103 11.5738 2.29954 11.5738 2.66857L11.5741 2.87407H10.4117L8.77866 2.42487ZM3.36671 4.7486H7.48722L7.49008 6.46067L7.49106 6.49218C7.52837 6.93753 7.70539 7.36245 8.02283 7.67971C8.3816 8.03856 8.81204 8.23843 9.34765 8.23843V8.2396C9.88326 8.23951 10.3495 8.04231 10.7085 7.68319C11.0676 7.32415 11.2746 6.84764 11.2746 6.33908C11.2705 5.80865 11.2647 5.66154 11.2571 5.60843C11.2229 5.27849 10.9529 5.03122 10.6208 5.03122C10.2884 5.03122 10.0174 5.27858 9.98351 5.60878C9.97583 5.66315 9.96842 5.80946 9.97708 6.3414C9.97708 6.49941 9.91557 6.64813 9.80336 6.76034C9.69106 6.87264 9.54234 6.93441 9.38434 6.9345C9.21839 6.9345 9.0395 6.86951 8.93068 6.76078C8.80794 6.63795 8.72269 6.48575 8.72269 6.34319V4.7486H15.8641V16.5319H3.36662L3.36671 4.7486Z" fill="#C0A65C"/>
<path d="M14.8823 10.3941C14.8823 9.79058 14.3931 9.30139 13.7896 9.30139H5.53057C4.92711 9.30139 4.43793 9.79067 4.43793 10.3941V10.4404C4.43793 11.0439 4.92711 11.5331 5.53057 11.5331H13.7896C14.3931 11.5331 14.8823 11.0438 14.8823 10.4404V10.3941Z" fill="#C0A65C"/>
<path d="M14.8823 13.9648C14.8823 13.3613 14.3931 12.8721 13.7896 12.8721H5.53057C4.92711 12.8721 4.43793 13.3613 4.43793 13.9648V14.011C4.43793 14.6146 4.92711 15.1038 5.53057 15.1038H13.7896C14.3931 15.1038 14.8823 14.6145 14.8823 14.011V13.9648Z" fill="#C0A65C"/>
</svg>
