<svg width="20" height="23" viewBox="0 0 20 23" fill="none" xmlns="http://www.w3.org/2000/svg">
<path d="M10 11.4286C13.1562 11.4286 15.7143 8.87054 15.7143 5.71429C15.7143 2.55804 13.1562 0 10 0C6.84375 0 4.28571 2.55804 4.28571 5.71429C4.28571 8.87054 6.84375 11.4286 10 11.4286ZM14.2768 12.8839L12.1429 21.4286L10.7143 15.3571L12.1429 12.8571H7.85714L9.28571 15.3571L7.85714 21.4286L5.72321 12.8839C2.54018 13.0357 0 15.6384 0 18.8571V20.7143C0 21.8973 0.959821 22.8571 2.14286 22.8571H17.8571C19.0402 22.8571 20 21.8973 20 20.7143V18.8571C20 15.6384 17.4598 13.0357 14.2768 12.8839Z" fill="#C0A65C"/>
</svg>
