<svg width="23" height="18" viewBox="0 0 23 18" fill="none" xmlns="http://www.w3.org/2000/svg">
<path d="M2.67868 6.03755C3.19366 8.00351 4.85458 9.81463 6.95972 9.81463C9.09618 9.81463 10.7838 8.01163 11.3115 6.05089C11.5122 6.02827 11.678 5.87517 11.696 5.66639L11.7627 4.89161C11.7795 4.68979 11.6531 4.51697 11.4692 4.45318C11.4658 4.40679 11.4646 4.35981 11.4594 4.314C11.42 2.53825 11.1114 1.10467 9.7138 0.511981C8.23846 -0.113182 6.93826 -0.121881 5.9837 0.249273C5.92106 0.27421 5.75926 0.489364 5.69605 0.528219C5.63284 0.567075 5.29822 0.456888 5.17122 0.486464C3.07767 0.785708 2.38698 2.75805 2.5395 4.29602C2.53486 4.33893 2.53196 4.38243 2.52848 4.42592C2.32608 4.47638 2.1811 4.66022 2.19966 4.87479L2.26577 5.64958C2.28491 5.86879 2.46469 6.02769 2.67868 6.03755ZM3.12465 4.50306C4.04151 4.16728 5.80508 3.46498 5.99646 3.09615C6.7985 3.9295 9.63087 4.39751 10.8742 4.55351C10.8795 4.63412 10.8864 4.71241 10.8864 4.7936C10.8864 6.83785 9.17099 9.2144 6.95972 9.2144C4.75657 9.2144 3.11015 6.88077 3.11015 4.7936C3.10957 4.69559 3.11711 4.5999 3.12465 4.50306Z" fill="#C0A65C"/>
<path d="M10.3332 9.11006C10.223 9.09324 10.1151 9.11818 10.0444 9.1466L8.28081 11.5318L6.94291 10.4648L6.9348 10.4717V10.4793L6.93306 10.4775L5.59516 11.5446L3.83159 9.15935C3.76142 9.13036 3.65298 9.10542 3.54279 9.12224C0.211094 9.59198 0 17.1171 0 17.1171L6.94117 17.1218V17.1096L13.876 17.105C13.876 17.105 13.6643 9.5798 10.3332 9.11006Z" fill="#C0A65C"/>
<path d="M13.9166 5.93491C14.3341 7.52972 15.6819 8.99752 17.3886 8.99752C19.1215 8.99752 20.4907 7.53552 20.9187 5.94477C21.081 5.92621 21.2162 5.80269 21.2307 5.63335L21.2846 5.00529C21.2985 4.84117 21.1953 4.70082 21.0462 4.64921C21.0439 4.61267 21.0422 4.57382 21.0381 4.53728C21.0062 3.09732 20.7563 1.9334 19.6231 1.45322C18.4267 0.946359 17.3718 0.93882 16.5976 1.2398C16.5472 1.2601 16.4161 1.43466 16.3651 1.46714C16.3129 1.49903 16.042 1.40856 15.9394 1.43292C14.2414 1.67533 13.6806 3.27536 13.8041 4.52278C13.8 4.55816 13.7983 4.59296 13.7954 4.62833C13.6313 4.66951 13.5141 4.81855 13.5292 4.99195L13.5826 5.62001C13.5971 5.79747 13.7432 5.92679 13.9166 5.93491ZM14.2779 4.6898C15.0214 4.41724 16.4526 3.84775 16.6075 3.5485C17.2587 4.22354 19.5558 4.60281 20.5637 4.73098C20.5684 4.79477 20.5742 4.85972 20.5742 4.92526C20.5742 6.58269 19.1835 8.51096 17.3892 8.51096C15.6019 8.51096 14.2663 6.61807 14.2663 4.92526C14.2663 4.84638 14.2715 4.76809 14.2779 4.6898Z" fill="#C0A65C"/>
<path d="M20.1253 8.42741C20.036 8.4135 19.9485 8.43379 19.8922 8.45641L18.4609 10.3916L17.3759 9.52638L17.3695 9.5316V9.53798L17.3678 9.53682L16.2827 10.4021L14.8515 8.46685C14.7946 8.44365 14.7065 8.42451 14.6183 8.43785C13.7363 8.56196 13.1256 9.29731 12.7005 10.2293C12.9516 10.6172 13.3054 11.236 13.6052 12.0502C13.9039 12.8592 14.1016 13.9611 14.2304 14.9255L17.3747 14.9273V14.9168L23 14.9133C22.9995 14.9116 22.8278 8.80669 20.1253 8.42741Z" fill="#C0A65C"/>
</svg>
