<svg width="20" height="20" viewBox="0 0 20 20" fill="none" xmlns="http://www.w3.org/2000/svg">
<path d="M15 17.8572C14.2143 17.8572 13.5 17.3572 13.2143 16.5714C13.2143 16.5 13.2143 16.4286 13.1428 16.4286H6.78571C6.78571 16.5 6.78571 16.5714 6.71428 16.5714C6.49999 17.3572 5.78571 17.8572 4.99999 17.8572C4.57142 17.8572 4.28571 18.1429 4.28571 18.5714C4.28571 19 4.57142 19.2857 4.99999 19.2857H15C15.4286 19.2857 15.7143 19 15.7143 18.5714C15.7143 18.1429 15.4286 17.8572 15 17.8572Z" fill="#C0A65C"/>
<path d="M11.4286 9.28575H12.8572C13.2857 9.28575 13.5714 9.00003 13.5714 8.57146C13.5714 8.14289 13.2857 7.85718 12.8572 7.85718H11.4286C11 7.85718 10.7143 8.14289 10.7143 8.57146C10.7143 9.00003 11 9.28575 11.4286 9.28575Z" fill="#C0A65C"/>
<path d="M17.8571 0H2.14286C0.928571 0 0 0.928571 0 2.14286V12.8571C0 14.0714 0.928571 15 2.14286 15H7.07143H12.8571H17.8571C19.0714 15 20 14.0714 20 12.8571V2.14286C20 0.928571 19.0714 0 17.8571 0ZM15.7143 10C15.7143 10.7857 15.0714 11.4286 14.2857 11.4286H5.71429C4.92857 11.4286 4.28571 10.7857 4.28571 10V7.14286H15.7143V10ZM15.7143 5.71428H4.28571V5C4.28571 4.21428 4.92857 3.57143 5.71429 3.57143H14.2857C15.0714 3.57143 15.7143 4.21428 15.7143 5V5.71428Z" fill="#C0A65C"/>
</svg>
