<svg width="20" height="20" viewBox="0 0 20 20" fill="none" xmlns="http://www.w3.org/2000/svg">
<path d="M5.5 9C8.53757 9 11 11.4624 11 14.5C11 17.5376 8.53757 20 5.5 20C2.46243 20 0 17.5376 0 14.5C0 11.4624 2.46243 9 5.5 9ZM5.5 16.88C5.15509 16.88 4.87549 17.1596 4.87549 17.5045C4.87549 17.8494 5.15509 18.129 5.5 18.129C5.84491 18.129 6.12451 17.8494 6.12451 17.5045C6.12451 17.1596 5.84491 16.88 5.5 16.88ZM16.75 0C18.5449 0 20 1.45507 20 3.25V14.75C20 16.5449 18.5449 18 16.75 18L10.9774 18.0012C11.6247 16.9907 12 15.7892 12 14.5C12 12.9846 11.4814 11.5904 10.6108 10.4871L10.6795 10.4967L10.75 10.5H15.2483L15.35 10.4932C15.7161 10.4435 15.9983 10.1297 15.9983 9.75C15.9983 9.3703 15.7161 9.05651 15.35 9.00685L15.2483 9H11.5V3.75L11.4932 3.64823C11.4435 3.28215 11.1297 3 10.75 3C10.3703 3 10.0565 3.28215 10.0068 3.64823L10 3.75V9.75L10.0048 9.81421C8.83648 8.69071 7.2489 8 5.5 8C4.21084 8 3.00934 8.3753 1.99879 9.02259L2 3.25C2 1.45507 3.45507 0 5.25 0H16.75ZM5.50004 11.0031C4.4521 11.0031 3.63575 11.8205 3.64666 12.9574C3.64931 13.2335 3.87531 13.4552 4.15144 13.4526C4.42757 13.4499 4.64927 13.2239 4.64662 12.9478C4.64106 12.3688 5.00627 12.0031 5.50004 12.0031C5.97242 12.0031 6.35345 12.395 6.35345 12.9526C6.35345 13.1769 6.27816 13.3437 6.03552 13.63L5.9365 13.7432L5.67113 14.0333C5.18682 14.5749 5.00004 14.9255 5.00004 15.5006C5.00004 15.7767 5.2239 16.0006 5.50004 16.0006C5.77619 16.0006 6.00004 15.7767 6.00004 15.5006C6.00004 15.2684 6.07645 15.0981 6.32379 14.8063L6.42474 14.6908L6.69048 14.4003C7.16815 13.866 7.35345 13.5186 7.35345 12.9526C7.35345 11.8489 6.53109 11.0031 5.50004 11.0031Z" fill="#C0A65C"/>
</svg>
