<svg width="18" height="31" viewBox="0 0 18 31" fill="none" xmlns="http://www.w3.org/2000/svg">
<path fill-rule="evenodd" clip-rule="evenodd" d="M3.19866 0H14.7988C15.679 0 16.4862 0.363281 17.062 0.938477C17.6454 1.52376 17.9975 2.32349 17.9975 3.20898V27.7885C17.9975 28.6715 17.6354 29.4813 17.062 30.059C16.4786 30.6443 15.6815 30.9975 14.7988 30.9975H3.19866C2.31852 30.9975 1.51132 30.6342 0.935457 30.059C0.352054 29.4737 0 28.674 0 27.7885V3.20898C0 2.32601 0.362112 1.51619 0.935457 0.938477C1.52137 0.35319 2.31852 0 3.19866 0ZM2.68567 6.88721H15.3143V13.068H2.68567V6.88721ZM9.55574 22.9069H15.3168V24.1103H9.55574V22.9069ZM2.68567 14.7003H8.02682V17.16H2.68567V14.7003ZM9.55574 14.6952H15.3168V17.1625H9.55574V14.6952ZM9.47024 18.8023H15.2313V21.2696H9.47024V18.8023ZM2.76865 18.8049H8.10981V21.2646H2.76865V18.8049ZM2.68567 22.9094H8.02682V24.1103H2.68567V22.9094ZM8.99497 27.0544C9.71919 27.0544 10.3127 27.6397 10.3127 28.3763C10.3127 29.1029 9.72925 29.6982 8.99497 29.6982C8.27074 29.6982 7.67728 29.113 7.67728 28.3763C7.6798 27.6497 8.2632 27.0544 8.99497 27.0544ZM0.907795 26.0503H17.0821V4.97746H0.907795V26.0503Z" fill="#0D6A84"/>
</svg>
