<svg width="20" height="16" viewBox="0 0 20 16" fill="none" xmlns="http://www.w3.org/2000/svg">
<path d="M5.5022 4.17551H15.7994V3.43289C15.7994 2.82 15.3643 2.31897 14.8339 2.31897H10.5839V1.67041C10.5839 0.747574 9.93332 0 9.13602 0H6.66427C6.27805 0 5.91503 0.174247 5.64038 0.491115C5.36573 0.807982 5.21553 1.22382 5.21553 1.67041V2.31993H0.965521C0.434279 2.31897 0 2.81995 0 3.43289V13.3811L3.24589 5.79446C3.63983 4.87057 4.61136 4.17551 5.5022 4.17551ZM6.18109 1.67041C6.18109 1.52287 6.23345 1.38324 6.32357 1.2783C6.41369 1.17135 6.53556 1.11296 6.66343 1.11296H9.13518C9.40212 1.11296 9.61753 1.36249 9.61753 1.67041V2.31993H6.18113V1.67041H6.18109Z" fill="#C0A65C"/>
<path d="M19.3715 5.28748H5.50221C4.97181 5.28748 4.34444 5.737 4.11184 6.28554L0.381935 15.0029C0.146791 15.5505 0.389653 16 0.920059 16H14.7893C15.3197 16 15.948 15.5515 16.1814 15.0029L19.9105 6.28554C20.1447 5.737 19.9036 5.28748 19.3715 5.28748Z" fill="#C0A65C"/>
</svg>
