<svg width="23" height="22" viewBox="0 0 23 22" fill="none" xmlns="http://www.w3.org/2000/svg">
<path d="M11.0986 2.38536C11.0986 1.95125 10.7463 1.59893 10.3121 1.59893H9.48561C9.51156 1.72633 9.52571 1.85766 9.52571 1.99214V3.565C9.52571 4.6487 8.64413 5.53107 7.55964 5.53107C7.47549 5.53107 7.39056 5.52557 7.30405 5.51456C6.32888 5.38951 5.59357 4.53388 5.59357 3.52411V3.41007C5.59357 2.80924 6.02532 2.2729 6.62143 2.19819C6.81411 2.17381 6.99892 2.19661 7.16643 2.25638V1.99214C7.16643 1.77509 7.34259 1.59893 7.55964 1.59893C7.7767 1.59893 7.95286 1.77509 7.95286 1.99214V3.54298C7.95286 3.73959 7.81838 3.92204 7.62413 3.9535C7.60211 3.95664 7.58088 3.95821 7.55964 3.95821C7.34259 3.95821 7.16643 3.78127 7.16643 3.565V3.36839C7.16643 3.12932 6.95331 2.94058 6.70715 2.98068C6.51369 3.01214 6.38 3.19381 6.38 3.38963V3.51703C6.38 4.12887 6.82512 4.67465 7.43381 4.73835C7.47628 4.74228 7.51796 4.74464 7.55964 4.74464C8.21002 4.74464 8.73929 4.21538 8.73929 3.565V1.99214C8.73929 1.34098 8.21081 0.8125 7.55964 0.8125C7.04689 0.8125 6.61436 1.14201 6.45235 1.59893H5.63368H4.02071C3.58661 1.59893 3.23429 1.95125 3.23429 2.38536V10.2496C3.23429 10.6838 3.58661 11.0361 4.02071 11.0361H10.3121C10.7463 11.0361 11.0986 10.6838 11.0986 10.2496V2.38536ZM8.34607 8.67678H5.98679C5.76973 8.67678 5.59357 8.50062 5.59357 8.28357C5.59357 8.06652 5.76973 7.89036 5.98679 7.89036H8.34607C8.56313 7.89036 8.73929 8.06652 8.73929 8.28357C8.73929 8.50062 8.56313 8.67678 8.34607 8.67678ZM8.34607 7.10393H5.98679C5.76973 7.10393 5.59357 6.92777 5.59357 6.71071C5.59357 6.49366 5.76973 6.3175 5.98679 6.3175H8.34607C8.56313 6.3175 8.73929 6.49366 8.73929 6.71071C8.73929 6.92777 8.56313 7.10393 8.34607 7.10393ZM22.895 18.5999V18.9004C22.895 20.2035 21.8388 21.2596 20.5357 21.2596H3.23429C1.93117 21.2596 0.875 20.2035 0.875 18.9004V18.5999C1.45224 19.2605 2.29057 19.6868 3.23429 19.6868H20.5357C21.4794 19.6868 22.3178 19.2605 22.895 18.5999ZM3.23429 18.9004H20.5357C21.8388 18.9004 22.895 17.8442 22.895 16.5411V4.74464C22.895 3.44153 21.8388 2.38536 20.5357 2.38536H11.885V10.2496C11.885 11.1171 11.1796 11.8225 10.3121 11.8225H4.02071C3.15328 11.8225 2.44786 11.1171 2.44786 10.2496V2.53006C1.53324 2.85485 0.875 3.71914 0.875 4.74464V16.5411C0.875 17.8442 1.93117 18.9004 3.23429 18.9004ZM3.6275 15.7546H5.824L8.06846 13.5102C8.1416 13.437 8.24148 13.3954 8.34607 13.3954H11.329L13.5735 11.1509C13.7268 10.9975 13.9761 10.9975 14.1295 11.1509L15.5867 12.6089H16.834L19.1933 10.2496H16.9968C16.7797 10.2496 16.6036 10.0735 16.6036 9.85643C16.6036 9.63937 16.7797 9.46321 16.9968 9.46321H20.1425C20.1936 9.46321 20.2447 9.47344 20.2927 9.4931C20.3887 9.53321 20.4657 9.60949 20.5058 9.70622C20.5255 9.75419 20.5357 9.80531 20.5357 9.85643V13.0021C20.5357 13.2192 20.3596 13.3954 20.1425 13.3954C19.9254 13.3954 19.7493 13.2192 19.7493 13.0021V10.8056L17.2752 13.2798C17.2013 13.3537 17.1014 13.3954 16.9968 13.3954H15.4239C15.3193 13.3954 15.2195 13.3537 15.1455 13.2805L13.8511 11.9853L11.7702 14.0662C11.6963 14.1401 11.5964 14.1818 11.4918 14.1818H8.50886L6.26439 16.4263C6.19126 16.4994 6.09138 16.5411 5.98679 16.5411H3.6275C3.41045 16.5411 3.23429 16.3649 3.23429 16.1479C3.23429 15.9308 3.41045 15.7546 3.6275 15.7546Z" fill="#C0A65C"/>
</svg>
