<svg width="20" height="20" viewBox="0 0 20 20" fill="none" xmlns="http://www.w3.org/2000/svg">
<path d="M8.72599 0V2.00787C9.13764 1.92556 9.56369 1.88235 10 1.88235C10.4363 1.88235 10.8624 1.92556 11.274 2.00787V0H13.822V3.13679C14.875 3.91581 15.6748 5.00874 16.0784 6.27451H3.92157C4.32518 5.00874 5.12505 3.91581 6.17797 3.13679V0H8.72599Z" fill="#C0A65C"/>
<path d="M0 8.62744V11.1547H3.75V13.0447L0.281599 14.0465L0.968401 16.4764L4.03986 15.5893C4.83992 18.1464 7.20584 20 10 20C12.7941 20 15.1601 18.1464 15.9601 15.5893L19.0316 16.4764L19.7184 14.0465L16.25 13.0447V11.1547H20V8.62744H11.25V14.9455H8.75V8.62744H0Z" fill="#C0A65C"/>
</svg>
