<svg width="20" height="22" viewBox="0 0 20 22" fill="none" xmlns="http://www.w3.org/2000/svg">
<path d="M16.6667 0H3.33333C1.48889 0 0 1.45758 0 3.25489V15.2114C0 17.0087 1.48889 18.4663 3.33333 18.4663H4.17778C5.06667 18.4663 5.91111 18.806 6.53333 19.4198L8.43333 21.2719C9.3 22.1157 10.7111 22.1157 11.5778 21.2719L13.4778 19.4198C14.1 18.806 14.9556 18.4663 15.8333 18.4663H16.6667C18.5111 18.4663 20 17.0087 20 15.2114V3.25489C20 1.45758 18.5111 0 16.6667 0ZM15.2 9.31535L13.9 13.2168C13.7333 13.8634 13.0333 14.3895 12.3222 14.3895H10.2667C9.91111 14.3895 9.41111 14.2689 9.18889 14.0497L7.55556 12.7894C7.52222 13.4908 7.2 13.7867 6.41111 13.7867H5.87778C5.05556 13.7867 4.72222 13.4689 4.72222 12.7017V7.4742C4.72222 6.70705 5.05556 6.38923 5.87778 6.38923H6.42222C7.24444 6.38923 7.57778 6.70705 7.57778 7.4742V7.86873L9.73333 4.71247C9.95556 4.37273 10.5222 4.13163 11 4.31794C11.5222 4.49328 11.8556 5.06316 11.7444 5.56729L11.4778 7.27693C11.4444 7.4194 11.4778 7.57283 11.5778 7.67146C11.6667 7.77009 11.8 7.83585 11.9444 7.83585H14.1111C14.5333 7.83585 14.8889 8.00024 15.1 8.29614C15.3 8.58108 15.3333 8.94273 15.2 9.31535Z" fill="#C0A65C"/>
</svg>
