<svg width="23" height="16" viewBox="0 0 23 16" fill="none" xmlns="http://www.w3.org/2000/svg">
<path d="M22.7125 12.5381H23V13.2286C22.8281 13.2286 22.6389 13.2286 22.425 13.2286C21.7902 13.2286 21.275 13.8473 21.275 14.6096C21.275 14.8623 21.275 15.0964 21.275 15.3H1.725C1.725 15.0964 1.725 14.8623 1.725 14.6096C1.725 13.8473 1.2098 13.2286 0.575 13.2286C0.391575 13.2286 0.19205 13.2286 0 13.2286V12.5381H0.2875C0.4462 12.5381 0.575 12.3835 0.575 12.1929C0.575 12.0023 0.4462 11.8477 0.2875 11.8477H0V11.1572H0.2875C0.4462 11.1572 0.575 11.0025 0.575 10.812C0.575 10.6214 0.4462 10.4667 0.2875 10.4667H0V9.77624H0.2875C0.4462 9.77624 0.575 9.62157 0.575 9.431C0.575 9.24043 0.4462 9.08576 0.2875 9.08576H0V8.39529H0.2875C0.4462 8.39529 0.575 8.24062 0.575 8.05005C0.575 7.85948 0.4462 7.70481 0.2875 7.70481H0V7.01433H0.2875C0.4462 7.01433 0.575 6.85967 0.575 6.6691C0.575 6.47853 0.4462 6.32386 0.2875 6.32386H0V5.63338H0.2875C0.4462 5.63338 0.575 5.47872 0.575 5.28814C0.575 5.09757 0.4462 4.94291 0.2875 4.94291H0V4.25243H0.2875C0.4462 4.25243 0.575 4.09776 0.575 3.90719C0.575 3.71662 0.4462 3.56195 0.2875 3.56195H0V2.87148C0.171925 2.87148 0.3611 2.87148 0.575 2.87148C1.2098 2.87148 1.725 2.25281 1.725 1.49053C1.725 1.23781 1.725 1.00374 1.725 0.800049H21.275C21.275 1.00374 21.275 1.23781 21.275 1.49053C21.275 2.25281 21.7902 2.87148 22.425 2.87148C22.6389 2.87148 22.8281 2.87148 23 2.87148V3.56195H22.7125C22.5538 3.56195 22.425 3.71662 22.425 3.90719C22.425 4.09776 22.5538 4.25243 22.7125 4.25243H23V4.94291H22.7125C22.5538 4.94291 22.425 5.09757 22.425 5.28814C22.425 5.47872 22.5538 5.63338 22.7125 5.63338H23V6.32386H22.7125C22.5538 6.32386 22.425 6.47853 22.425 6.6691C22.425 6.85967 22.5538 7.01433 22.7125 7.01433H23V7.70481H22.7125C22.5538 7.70481 22.425 7.85948 22.425 8.05005C22.425 8.24062 22.5538 8.39529 22.7125 8.39529H23V9.08576H22.7125C22.5538 9.08576 22.425 9.24043 22.425 9.431C22.425 9.62157 22.5538 9.77624 22.7125 9.77624H23V10.4667H22.7125C22.5538 10.4667 22.425 10.6214 22.425 10.812C22.425 11.0025 22.5538 11.1572 22.7125 11.1572H23V11.8477H22.7125C22.5538 11.8477 22.425 12.0023 22.425 12.1929C22.425 12.3835 22.5538 12.5381 22.7125 12.5381ZM20.7 4.25243C20.7 3.49014 20.1848 2.87148 19.55 2.87148H3.45C2.8152 2.87148 2.3 3.49014 2.3 4.25243V11.8477C2.3 12.61 2.8152 13.2286 3.45 13.2286H19.55C20.1848 13.2286 20.7 12.61 20.7 11.8477V4.25243ZM19.55 12.5381H3.45C3.13203 12.5381 2.875 12.2288 2.875 11.8477V4.25243C2.875 3.8706 3.13203 3.56195 3.45 3.56195H19.55C19.8674 3.56195 20.125 3.8706 20.125 4.25243V11.8477C20.125 12.2288 19.8674 12.5381 19.55 12.5381ZM6.54752 6.31557H4.26305V6.72295H5.21295V9.77624H5.59475V6.72295H6.54695V6.31557H6.54752ZM7.3416 6.31557H6.9598V9.77624H7.3416V6.31557ZM8.48642 7.35267C8.54622 7.13724 8.65145 6.966 8.80037 6.83895C8.94872 6.71122 9.13387 6.64769 9.35525 6.64769C9.54788 6.64769 9.70772 6.705 9.8348 6.82031C9.96245 6.93493 10.0591 7.1186 10.1258 7.37062L10.5006 7.26429C10.4236 6.94529 10.2867 6.69741 10.0901 6.52133C9.89345 6.34526 9.6508 6.25688 9.36273 6.25688C9.10858 6.25688 8.8757 6.32662 8.6641 6.4661C8.4525 6.60557 8.28977 6.80926 8.1742 7.07786C8.05977 7.34645 8.00227 7.66062 8.00227 8.02036C8.00227 8.3511 8.05345 8.66043 8.15522 8.94836C8.257 9.23629 8.40477 9.45655 8.59855 9.60845C8.79348 9.76036 9.0459 9.83631 9.3564 9.83631C9.65597 9.83631 9.91012 9.73757 10.1177 9.5401C10.3253 9.34262 10.469 9.05607 10.549 8.67976L10.1671 8.56376C10.1148 8.85514 10.0142 9.07471 9.867 9.22317C9.71865 9.37093 9.53867 9.44481 9.32477 9.44481C9.1494 9.44481 8.9861 9.39026 8.83545 9.28186C8.6848 9.17345 8.57382 9.00912 8.50252 8.78955C8.43122 8.56998 8.395 8.31312 8.395 8.01829C8.39615 7.78905 8.42605 7.56741 8.48642 7.35267ZM13.4337 6.31557H12.9174L11.4868 8.02795V6.31557H11.105V9.77624H11.4868V8.57619L11.9594 8.02726L12.9847 9.77624H13.4878L12.2256 7.71862L13.4337 6.31557ZM16.0644 9.36886H14.2968V8.19021H15.8896V7.78284H14.2968V6.72295H15.9971V6.31557H13.915V9.77624H16.0644V9.36886ZM18.7594 6.31557H16.4749V6.72295H17.4248V9.77624H17.8066V6.72295H18.7588L18.7594 6.31557Z" fill="#C0A65C"/>
</svg>
