<svg width="20" height="19" viewBox="0 0 20 19" fill="none" xmlns="http://www.w3.org/2000/svg">
<path fill-rule="evenodd" clip-rule="evenodd" d="M8.96755 1.11215C8.34272 0.0619405 6.97528 -0.329022 5.89724 0.308235L4.29334 1.22607C3.11035 1.90234 2.70923 3.41872 3.38503 4.58838L3.38551 4.5892C3.73413 5.19066 3.67941 5.57487 3.5706 5.76371C3.46172 5.95264 3.15687 6.19208 2.46397 6.19208C1.10016 6.19208 0 7.30632 0 8.65605V10.2925C0 11.6423 1.10016 12.7565 2.46397 12.7565C3.15687 12.7565 3.46172 12.9959 3.5706 13.1848C3.67941 13.3737 3.73413 13.7579 3.38551 14.3593L3.38503 14.3602C2.70923 15.5299 3.11072 17.0465 4.29372 17.7227L5.89732 18.6403C6.97535 19.2775 8.34272 18.8866 8.96755 17.8364L9.07401 17.6526C9.42269 17.0511 9.78429 16.9057 10.0034 16.9057C10.2217 16.9057 10.5805 17.0499 10.9245 17.65L10.926 17.6526L11.0283 17.8293L11.0325 17.8364C11.6573 18.8866 13.0246 19.2775 14.1027 18.6403L15.7066 17.7225C16.8905 17.0457 17.2891 15.5398 16.6166 14.3631L16.6145 14.3593C16.2658 13.7579 16.3206 13.3737 16.4294 13.1848C16.5383 12.9959 16.8431 12.7565 17.536 12.7565C18.8999 12.7565 20 11.6423 20 10.2925V8.65605C20 7.29224 18.8857 6.19208 17.536 6.19208C16.8431 6.19208 16.5383 5.95264 16.4294 5.76371C16.3206 5.57487 16.2658 5.19066 16.6145 4.5892L16.615 4.58838C17.2908 3.4186 16.8895 1.90201 15.7063 1.22585L14.1027 0.308235C13.0247 -0.329022 11.6573 0.0619033 11.0325 1.11212L10.926 1.29596C10.5773 1.89747 10.2157 2.04285 9.99647 2.04285C9.77834 2.04285 9.41953 1.8987 9.0755 1.29855L9.07401 1.29596L8.97173 1.11928L8.96755 1.11215ZM12.7848 9.47427C12.7848 11.0149 11.5359 12.2637 9.99535 12.2637C8.45477 12.2637 7.20595 11.0149 7.20595 9.47427C7.20595 7.93368 8.45477 6.68487 9.99535 6.68487C11.5359 6.68487 12.7848 7.93368 12.7848 9.47427Z" fill="#C0A65C"/>
</svg>
