<svg width="29" height="26" viewBox="0 0 29 26" fill="none" xmlns="http://www.w3.org/2000/svg">
<g clip-path="url(#clip0_379_12)">
<path fill-rule="evenodd" clip-rule="evenodd" d="M27.3315 7.93345C27.7846 7.77931 28.2613 8.02498 28.5776 8.41516C28.6852 8.60614 28.7648 8.81227 28.8136 9.02692C28.8614 9.2253 28.8766 9.43042 28.8584 9.63387C28.6035 10.2721 28.1504 10.5009 27.6147 10.8743C27.0917 11.1498 26.5489 11.3841 25.991 11.5751C25.6912 11.6883 25.3892 11.7943 25.0824 11.8907C24.7756 11.987 24.4688 12.0761 24.1619 12.1532C23.9017 12.2128 23.6357 12.2427 23.369 12.2423C22.4893 12.2384 21.6405 11.9109 20.9783 11.3198C20.7291 11.1021 20.4927 10.8697 20.2703 10.6238L20.1995 10.5491L18.977 14.0776C19.4445 14.3972 19.9335 14.6829 20.4402 14.9326C22.0214 15.6865 23.3218 16.3079 23.6003 18.8441C23.638 19.1716 23.6357 20.9852 23.6215 22.4207H29V26.0118H0V24.2729H4.59969C4.41836 24.1429 4.27727 23.9627 4.19306 23.7535C4.10885 23.5443 4.08505 23.3149 4.12447 23.0924C4.16388 22.8699 4.26487 22.6635 4.4155 22.4976C4.56613 22.3318 4.76012 22.2134 4.97455 22.1564C5.18899 22.0994 5.41493 22.1063 5.62568 22.1761C5.83644 22.246 6.02321 22.3759 6.16394 22.5505C6.30468 22.7252 6.39351 22.9373 6.41993 23.1619C6.44635 23.3864 6.40927 23.6139 6.31307 23.8177C6.22679 24.0009 6.09497 24.1578 5.93075 24.2729H12.0503C12.3595 23.3745 12.9447 21.4838 13.2161 20.6986C13.8109 18.9597 14.382 17.1725 14.7997 15.7539C14.5374 15.4353 14.3183 15.0821 14.1484 14.7038C14.0057 14.3989 13.9292 14.0662 13.9242 13.7284C13.9245 13.596 13.9356 13.4639 13.9572 13.3334L15.4535 8.9643C15.1372 8.94744 14.7738 8.8511 14.4764 8.98598C13.9006 9.24128 13.0604 10.4937 12.5506 11.0091L11.878 11.7028C11.38 12.2182 11.0402 12.789 10.3062 12.7722L9.86727 13.7043L6.17855 21.5585L6.10303 21.5175C5.64341 21.294 5.11575 21.2652 4.63545 21.4377C4.15515 21.6101 3.7613 21.9696 3.54004 22.4376C3.50449 22.5158 3.47375 22.5963 3.448 22.6784L1.50098 21.715L1.05729 22.6399L0 22.0643L0.497965 21.0069C0.388961 20.828 0.325592 20.624 0.313637 20.4137C0.301683 20.2033 0.341523 19.9933 0.429525 19.8027L1.86206 16.7631L3.27808 17.4182C3.31463 17.4434 3.35607 17.4602 3.39957 17.4676C3.44308 17.4749 3.48762 17.4726 3.53017 17.4608C3.57272 17.449 3.61227 17.4279 3.64614 17.3991C3.68001 17.3703 3.70739 17.3344 3.72642 17.2938C3.74545 17.2532 3.75568 17.2089 3.75642 17.1639C3.75716 17.1189 3.74839 17.0743 3.7307 17.0331C3.71301 16.9918 3.68682 16.955 3.65392 16.925C3.62102 16.8951 3.58218 16.8727 3.54004 16.8594L2.12402 16.1971L2.99723 14.3449L4.48405 15.029C4.55916 15.0609 4.64363 15.0611 4.71887 15.0295C4.79411 14.9978 4.85396 14.937 4.88525 14.8604C4.91655 14.7837 4.91673 14.6975 4.88575 14.6207C4.85476 14.5439 4.79516 14.4829 4.72005 14.4509L3.26392 13.7765L4.01204 12.2062C4.15369 11.9074 4.40557 11.678 4.71254 11.5683C5.01951 11.4587 5.35656 11.4776 5.6499 11.6209L8.9681 13.2467L9.37874 12.3748C9.26249 12.2747 9.16676 12.1523 9.09704 12.0143C9.02732 11.8764 8.98499 11.7258 8.97249 11.5712C8.95999 11.4165 8.97756 11.2609 9.0242 11.1131C9.07083 10.9654 9.1456 10.8286 9.24422 10.7105L10.7948 9.10881C11.5429 8.33327 12.2509 7.26629 13.1713 6.73642C14.0413 6.22051 15.0454 5.98933 16.0482 6.07407C16.5367 6.07407 17.0535 6.12947 17.5397 6.17764L18.1085 6.22822C20.3458 6.37514 21.3866 7.57458 22.1984 8.50909C22.5595 8.92336 22.8687 9.27741 23.2038 9.44119C23.3619 9.51585 23.6097 9.40988 23.8929 9.28945L25.9603 8.50427L27.3315 7.9479V7.93345ZM20.7682 22.4303C20.7871 21.0936 20.8013 19.6027 20.7824 19.3113C20.7635 19.0199 20.5794 18.2901 20.2915 18.1552C19.906 17.9846 19.5121 17.8343 19.1115 17.7048C18.5522 17.517 18.0943 17.3267 17.5421 17.1701C17.1362 18.5358 16.5981 20.1832 16.0033 21.7463L15.1561 24.2536H18.0896V22.4231L20.7682 22.4303ZM18.0377 0.1467C18.5746 -0.0411056 19.1561 -0.0500062 19.6983 0.121282C20.2405 0.292571 20.7153 0.635194 21.0544 1.09973C21.3934 1.56427 21.5791 2.12671 21.5847 2.70592C21.5902 3.28513 21.4154 3.85117 21.0853 4.3224C20.7553 4.79362 20.2871 5.14568 19.7483 5.32777C19.2095 5.50987 18.6279 5.5126 18.0875 5.33556C17.5471 5.15853 17.0757 4.81088 16.7414 4.34277C16.4071 3.87466 16.2272 3.31028 16.2275 2.73104C16.2279 2.16152 16.4025 1.60632 16.727 1.143C17.0516 0.679672 17.5098 0.331357 18.0377 0.1467Z" fill="#0D6A84"/>
</g>
<defs>
<clipPath id="clip0_379_12">
<rect width="29" height="26" fill="white"/>
</clipPath>
</defs>
</svg>
