<svg width="23" height="20" viewBox="0 0 23 20" fill="none" xmlns="http://www.w3.org/2000/svg">
<path d="M10.8951 15.6522C11.0486 15.2429 11.0997 14.7826 10.8951 14.3734C10.6394 13.7595 10.0256 13.3504 9.41177 13.3504C9.20716 13.3504 9.05371 13.4015 8.84911 13.4526L5.6266 14.6803V10.5371C5.6266 10.2302 5.47315 9.97442 5.21739 9.82093C5.11509 9.76978 4.96164 9.71863 4.85934 9.71863C4.70588 9.71863 4.55243 9.76978 4.39898 9.87208L0.869565 12.2762C0.306905 12.6343 0 13.2992 0 13.9642V17.6471C0 18.6189 0.716113 19.4885 1.68798 19.6419L3.37596 19.9488C3.47826 19.9488 3.63171 20 3.73402 20C4.55243 20 5.31969 19.4885 5.6266 18.6701L5.8312 18.1074L10.0256 16.5729C10.3836 16.3683 10.7417 16.0613 10.8951 15.6522Z" fill="#C0A65C"/>
<path d="M16.6752 0C13.6061 0 11.0486 2.19949 10.4859 5.11509L8.18413 4.80818C7.57032 4.70588 7.00766 5.16624 6.95651 5.7289L6.49615 9.00256C6.85421 9.41177 7.10997 9.97443 7.10997 10.5371V12.5831L8.38874 12.1228C8.74679 12.0204 9.10485 11.9181 9.46291 11.9181C10.7417 11.9181 11.867 12.6853 12.3274 13.8619C12.6342 14.6291 12.6342 15.4986 12.2762 16.2659C11.9182 17.0332 11.3043 17.647 10.5371 17.9028L8.28644 18.7212L13.8619 19.4885C14.4757 19.5907 15.0384 19.1304 15.0895 18.5677L15.908 12.5831C16.1637 12.6342 16.4195 12.6342 16.6752 12.6342C20.1534 12.6342 22.9667 9.82089 22.9667 6.34263C22.9667 2.86445 20.1534 0 16.6752 0ZM15.7545 5.8312L14.7826 5.67775C15.0383 4.85933 15.8056 4.24552 16.7263 4.24552C17.8516 4.24552 18.7723 5.16624 18.7723 6.29156C18.7723 7.41688 17.8516 8.3376 16.7263 8.3376C16.6752 8.3376 16.624 8.3376 16.5728 8.3376L16.7263 7.10998C16.7775 6.44501 16.3171 5.9335 15.7545 5.8312ZM16.6752 11.0997C16.4705 11.0997 16.3171 11.0997 16.1125 11.0486L16.266 9.76982C16.3683 9.76982 16.5217 9.76982 16.624 9.76982C18.5678 9.76982 20.1023 8.18414 20.1023 6.29156C20.1023 4.34783 18.5166 2.8133 16.624 2.8133C14.9872 2.8133 13.555 3.98977 13.1969 5.5243L11.9182 5.37084C12.3785 3.17136 14.3222 1.53453 16.624 1.53453C19.2839 1.53453 21.4322 3.68286 21.4322 6.34271C21.4322 9.00256 19.335 11.0997 16.6752 11.0997Z" fill="#C0A65C"/>
</svg>
