<svg width="20" height="20" viewBox="0 0 20 20" fill="none" xmlns="http://www.w3.org/2000/svg">
<path d="M8.33331 7.5H3.33331V13.3333H8.33331V7.5Z" fill="#C0A65C"/>
<path d="M11.6667 6.66663H10V8.33329H11.6667V6.66663Z" fill="#C0A65C"/>
<path d="M14.1667 6.66663H12.5V8.33329H14.1667V6.66663Z" fill="#C0A65C"/>
<path d="M16.6667 6.66663H15V8.33329H16.6667V6.66663Z" fill="#C0A65C"/>
<path d="M11.6667 9.16663H10V10.8333H11.6667V9.16663Z" fill="#C0A65C"/>
<path d="M14.1667 9.16663H12.5V10.8333H14.1667V9.16663Z" fill="#C0A65C"/>
<path d="M16.6667 9.16663H15V10.8333H16.6667V9.16663Z" fill="#C0A65C"/>
<path d="M11.6667 11.6666H10V13.3333H11.6667V11.6666Z" fill="#C0A65C"/>
<path d="M14.1667 11.6666H12.5V13.3333H14.1667V11.6666Z" fill="#C0A65C"/>
<path d="M16.6667 11.6666H15V13.3333H16.6667V11.6666Z" fill="#C0A65C"/>
<path d="M19.1667 4.16667H17.5V0.833333C17.5 0.373088 17.1269 0 16.6667 0H10C9.53975 0 9.16667 0.373088 9.16667 0.833333V4.16667H5.83333V2.5H7.5V0H2.5V2.5H4.16667V4.16667H0.833333C0.373088 4.16667 0 4.53975 0 5V15.8333C0 16.2936 0.373088 16.6667 0.833333 16.6667H1.66667V19.1667C1.66667 19.6269 2.03975 20 2.5 20H17.5C17.9602 20 18.3333 19.6269 18.3333 19.1667V16.6667H19.1667C19.6269 16.6667 20 16.2936 20 15.8333V5C20 4.53975 19.6269 4.16667 19.1667 4.16667ZM16.6667 18.3333H3.33333V16.6667H16.6667V18.3333ZM18.3333 15H17.5H2.5H1.66667V5.83333H10C10.4602 5.83333 10.8333 5.46025 10.8333 5V1.66667H15.8333V5C15.8333 5.46025 16.2064 5.83333 16.6667 5.83333H18.3333V15Z" fill="#C0A65C"/>
</svg>
